<svg width="62" height="27" viewBox="0 0 62 27" fill="none" xmlns="http://www.w3.org/2000/svg">
<path d="M6.33203 26.0859C5.47526 26.0859 4.67318 25.9492 3.92578 25.6758C3.19661 25.4023 2.54948 25.0195 1.98438 24.5273C1.4375 24.0352 1 23.4518 0.671875 22.7773C0.34375 22.1211 0.170573 21.401 0.152344 20.6172C0.134115 19.5964 0.298177 18.6849 0.644531 17.8828C0.972656 17.0807 1.41016 16.3698 1.95703 15.75C2.52214 15.1302 3.16016 14.6107 3.87109 14.1914C4.58203 13.7539 5.3112 13.3984 6.05859 13.125C5.65755 12.9062 5.27474 12.6419 4.91016 12.332C4.5638 12.0221 4.25391 11.6758 3.98047 11.293C3.70703 10.9102 3.48828 10.5091 3.32422 10.0898C3.16016 9.67057 3.07812 9.2513 3.07812 8.83203C3.04167 7.55599 3.29688 6.39844 3.84375 5.35938C4.40885 4.32031 5.12891 3.4362 6.00391 2.70703C6.87891 1.95964 7.85417 1.38542 8.92969 0.984375C10.0234 0.583333 11.0898 0.382812 12.1289 0.382812C12.8216 0.382812 13.4141 0.501302 13.9062 0.738281C14.3984 0.957031 14.7995 1.23958 15.1094 1.58594C15.4193 1.91406 15.6471 2.27865 15.793 2.67969C15.957 3.0625 16.0482 3.41797 16.0664 3.74609C16.0846 4.34766 16.0026 4.95833 15.8203 5.57812C15.6562 6.19792 15.4375 6.76302 15.1641 7.27344C14.9089 7.76562 14.6172 8.17578 14.2891 8.50391C13.9609 8.8138 13.6419 8.96875 13.332 8.96875C13.0951 8.96875 12.849 8.93229 12.5938 8.85938C12.375 8.80469 12.1198 8.71354 11.8281 8.58594C11.5365 8.45833 11.2448 8.26693 10.9531 8.01172C11.4271 7.82943 11.8464 7.57422 12.2109 7.24609C12.5755 6.89974 12.8763 6.51693 13.1133 6.09766C13.3685 5.67839 13.5508 5.25 13.6602 4.8125C13.7878 4.35677 13.8516 3.92839 13.8516 3.52734C13.8333 2.94401 13.6966 2.4974 13.4414 2.1875C13.1862 1.85938 12.776 1.69531 12.2109 1.69531C11.4453 1.69531 10.6797 1.88672 9.91406 2.26953C9.14844 2.63411 8.46484 3.15365 7.86328 3.82812C7.27995 4.48438 6.8151 5.27734 6.46875 6.20703C6.14062 7.11849 6.03125 8.11198 6.14062 9.1875C6.23177 10.0078 6.47786 10.7005 6.87891 11.2656C7.29818 11.8307 7.6901 12.2682 8.05469 12.5781C8.34635 12.5417 8.61979 12.5143 8.875 12.4961C9.13021 12.4596 9.36719 12.4414 9.58594 12.4414C9.89583 12.4414 10.2057 12.4961 10.5156 12.6055C10.8255 12.7148 10.9805 12.8698 10.9805 13.0703C10.9805 13.2161 10.944 13.3802 10.8711 13.5625C10.8164 13.7448 10.7161 13.918 10.5703 14.082C10.4245 14.2461 10.2513 14.3828 10.0508 14.4922C9.85026 14.6016 9.61328 14.6562 9.33984 14.6562C9.12109 14.6562 8.85677 14.6016 8.54688 14.4922C8.23698 14.3828 7.92708 14.2461 7.61719 14.082C6.92448 14.2279 6.29557 14.4922 5.73047 14.875C5.16536 15.2396 4.68229 15.6771 4.28125 16.1875C3.89844 16.6979 3.59766 17.2539 3.37891 17.8555C3.16016 18.457 3.0599 19.0404 3.07812 19.6055C3.09635 20.1341 3.17839 20.6628 3.32422 21.1914C3.47005 21.7383 3.69792 22.2214 4.00781 22.6406C4.31771 23.0599 4.71875 23.3971 5.21094 23.6523C5.72135 23.9258 6.33203 24.0625 7.04297 24.0625C7.57161 24.0625 8.07292 23.944 8.54688 23.707C9.03906 23.4883 9.49479 23.2057 9.91406 22.8594C10.3333 22.513 10.7161 22.1302 11.0625 21.7109C11.4089 21.2917 11.7096 20.8815 11.9648 20.4805C12.2201 20.0794 12.4297 19.7148 12.5938 19.3867C12.776 19.0586 12.9036 18.8216 12.9766 18.6758C13.0312 18.5664 13.1042 18.4844 13.1953 18.4297C13.3047 18.375 13.4049 18.3659 13.4961 18.4023C13.6055 18.4206 13.6875 18.4844 13.7422 18.5938C13.7969 18.7031 13.7969 18.8672 13.7422 19.0859C13.5964 19.7422 13.3229 20.4714 12.9219 21.2734C12.5208 22.0938 12.0013 22.8594 11.3633 23.5703C10.7435 24.2812 10.0052 24.8737 9.14844 25.3477C8.3099 25.8398 7.37109 26.0859 6.33203 26.0859ZM15.2461 20.5625C16.0482 17.1901 16.6862 14.4831 17.1602 12.4414C17.6523 10.3997 18.026 8.84115 18.2812 7.76562C18.5729 6.48958 18.7734 5.60547 18.8828 5.11328C18.9375 4.76693 18.9831 4.42969 19.0195 4.10156C19.056 3.8099 19.0742 3.50911 19.0742 3.19922C19.0742 2.88932 19.0469 2.60677 18.9922 2.35156C19.138 2.26042 19.293 2.1875 19.457 2.13281C19.6393 2.07812 19.8125 2.03255 19.9766 1.99609C20.1771 1.94141 20.3776 1.89583 20.5781 1.85938C20.7786 1.82292 20.9609 1.80469 21.125 1.80469C21.2708 1.80469 21.4076 1.82292 21.5352 1.85938C21.6628 1.8776 21.7448 1.93229 21.7812 2.02344C21.8906 2.11458 21.9362 2.29688 21.918 2.57031C21.918 2.84375 21.8997 3.1263 21.8633 3.41797C21.7904 3.76432 21.7083 4.13802 21.6172 4.53906C21.3984 5.32292 21.0977 6.45312 20.7148 7.92969C20.3867 9.1875 19.9401 10.901 19.375 13.0703C18.8281 15.2396 18.1354 17.974 17.2969 21.2734C17.2057 21.3646 17.0964 21.4284 16.9688 21.4648C16.8411 21.5013 16.7227 21.5195 16.6133 21.5195C16.4857 21.5195 16.349 21.5104 16.2031 21.4922C16.0755 21.4557 15.9479 21.401 15.8203 21.3281C15.7109 21.2552 15.6016 21.1549 15.4922 21.0273C15.3828 20.918 15.3008 20.763 15.2461 20.5625ZM27.7969 4.89453C27.7422 5.09505 27.6328 5.29557 27.4688 5.49609C27.3229 5.67839 27.1497 5.83333 26.9492 5.96094C26.7669 6.07031 26.5755 6.14323 26.375 6.17969C26.1745 6.21615 26.0104 6.17969 25.8828 6.07031C25.5 5.77865 25.2995 5.46875 25.2812 5.14062C25.263 4.79427 25.3451 4.47526 25.5273 4.18359C25.7096 3.8737 25.9375 3.61849 26.2109 3.41797C26.4844 3.19922 26.7214 3.07161 26.9219 3.03516C27.1224 2.9987 27.2865 3.04427 27.4141 3.17188C27.5599 3.28125 27.6693 3.4362 27.7422 3.63672C27.8151 3.81901 27.8516 4.02865 27.8516 4.26562C27.8698 4.5026 27.8516 4.71224 27.7969 4.89453ZM24.0234 10.7188C24.1146 10.6094 24.2878 10.5182 24.543 10.4453C24.7982 10.3724 25.0625 10.3177 25.3359 10.2812C25.6094 10.2266 25.8555 10.1992 26.0742 10.1992C26.3112 10.181 26.4479 10.181 26.4844 10.1992C26.5026 10.2174 26.457 10.4089 26.3477 10.7734C26.2383 11.138 26.1016 11.5664 25.9375 12.0586C25.7734 12.5508 25.6003 13.0612 25.418 13.5898C25.2357 14.1003 25.099 14.5195 25.0078 14.8477C24.9167 15.1758 24.8073 15.5495 24.6797 15.9688C24.5521 16.3698 24.4336 16.7708 24.3242 17.1719C24.2331 17.5547 24.1693 17.9193 24.1328 18.2656C24.0964 18.612 24.1237 18.8763 24.2148 19.0586C24.306 19.2773 24.4062 19.4323 24.5156 19.5234C24.625 19.5964 24.7435 19.6328 24.8711 19.6328C25.2357 19.6328 25.6914 19.4323 26.2383 19.0312C26.8034 18.6302 27.3685 18.1562 27.9336 17.6094C28.5169 17.0443 29.0547 16.4792 29.5469 15.9141C30.0391 15.3307 30.4036 14.8659 30.6406 14.5195C30.7865 14.3372 30.9323 14.2188 31.0781 14.1641C31.2422 14.1094 31.3698 14.1185 31.4609 14.1914C31.5703 14.2643 31.625 14.3828 31.625 14.5469C31.6432 14.7109 31.5885 14.9023 31.4609 15.1211C31.1693 15.6315 30.7409 16.2422 30.1758 16.9531C29.6107 17.6458 29.0091 18.3203 28.3711 18.9766C27.7331 19.6146 27.1042 20.1615 26.4844 20.6172C25.8828 21.0729 25.3906 21.3099 25.0078 21.3281C24.6979 21.3464 24.388 21.2917 24.0781 21.1641C23.7865 21.0547 23.513 20.8997 23.2578 20.6992C23.0208 20.4805 22.8203 20.2344 22.6562 19.9609C22.4922 19.6693 22.401 19.3685 22.3828 19.0586C22.3281 18.6029 22.3281 17.9831 22.3828 17.1992C22.4375 16.3971 22.5378 15.5859 22.6836 14.7656C22.8294 13.9271 23.0117 13.1341 23.2305 12.3867C23.4674 11.6393 23.7318 11.0833 24.0234 10.7188ZM41.4141 17.3906C40.6484 18.3568 39.9648 19.1224 39.3633 19.6875C38.7799 20.2344 38.2604 20.6445 37.8047 20.918C37.349 21.1914 36.9479 21.3646 36.6016 21.4375C36.2552 21.5104 35.9453 21.5469 35.6719 21.5469C35.3255 21.5469 35.0339 21.4648 34.7969 21.3008C34.5599 21.1367 34.3594 20.9362 34.1953 20.6992C34.0312 20.4622 33.9036 20.2161 33.8125 19.9609C33.7214 19.7057 33.6484 19.487 33.5938 19.3047C33.5208 19.1042 33.4388 18.8763 33.3477 18.6211C33.2747 18.3659 33.1927 18.0833 33.1016 17.7734C32.737 18.1562 32.3542 18.5664 31.9531 19.0039C31.6068 19.3685 31.2148 19.7878 30.7773 20.2617C30.3398 20.7174 29.8932 21.1823 29.4375 21.6562C29.2734 21.6927 29.1276 21.6927 29 21.6562C28.8724 21.6198 28.763 21.5833 28.6719 21.5469C28.5625 21.4922 28.4714 21.4284 28.3984 21.3555C28.3438 21.3008 28.2891 21.237 28.2344 21.1641C28.1979 21.1094 28.1615 21.0456 28.125 20.9727C28.0703 20.8815 28.0521 20.7904 28.0703 20.6992C28.599 20.0977 29.1185 19.5052 29.6289 18.9219C30.1576 18.3203 30.6315 17.7826 31.0508 17.3086C31.5247 16.7617 31.9805 16.2331 32.418 15.7227C32.1628 15.0299 31.9349 14.3828 31.7344 13.7812C31.5339 13.1797 31.388 12.7513 31.2969 12.4961C31.1146 11.9674 30.9505 11.5299 30.8047 11.1836C30.6771 10.8372 30.4492 10.5911 30.1211 10.4453C30.3398 10.2448 30.5495 10.0898 30.75 9.98047C30.9688 9.85286 31.1602 9.76172 31.3242 9.70703C31.5247 9.63411 31.6979 9.59766 31.8438 9.59766C32.263 9.59766 32.6276 9.97135 32.9375 10.7188C33.2656 11.4479 33.5938 12.4596 33.9219 13.7539C33.9219 13.8086 33.9401 13.8724 33.9766 13.9453C34.3594 13.4896 34.724 13.0612 35.0703 12.6602C35.4349 12.2591 35.7448 11.9036 36 11.5938C36.2734 11.2839 36.4922 11.0378 36.6562 10.8555C36.8203 10.6732 36.9206 10.5638 36.957 10.5273C37.3216 10.1081 37.6497 9.87109 37.9414 9.81641C38.2331 9.76172 38.4974 9.82552 38.7344 10.0078C38.8438 10.0807 38.9622 10.1536 39.0898 10.2266C39.3268 10.3724 39.6094 10.5091 39.9375 10.6367C39.6276 10.9284 39.2812 11.2656 38.8984 11.6484C38.5339 12.013 38.1875 12.3685 37.8594 12.7148C37.4766 13.1159 37.0938 13.5169 36.7109 13.918C36.4375 14.1914 36.1094 14.5286 35.7266 14.9297C35.362 15.3307 34.9701 15.7682 34.5508 16.2422C34.6784 16.6979 34.8151 17.1263 34.9609 17.5273C35.1068 17.9284 35.2526 18.2839 35.3984 18.5938C35.5625 18.9036 35.7266 19.1497 35.8906 19.332C36.0547 19.5143 36.2279 19.6055 36.4102 19.6055C36.7018 19.6055 37.0299 19.5326 37.3945 19.3867C37.7591 19.2227 38.1419 19.0039 38.543 18.7305C38.944 18.457 39.3451 18.138 39.7461 17.7734C40.1654 17.4089 40.5755 17.026 40.9766 16.625C41.1224 16.4792 41.2591 16.3971 41.3867 16.3789C41.5326 16.3607 41.6328 16.388 41.6875 16.4609C41.7422 16.5339 41.7513 16.6523 41.7148 16.8164C41.6966 16.9805 41.5964 17.1719 41.4141 17.3906ZM46.6641 4.89453C46.6094 5.09505 46.5 5.29557 46.3359 5.49609C46.1901 5.67839 46.0169 5.83333 45.8164 5.96094C45.6341 6.07031 45.4427 6.14323 45.2422 6.17969C45.0417 6.21615 44.8776 6.17969 44.75 6.07031C44.3672 5.77865 44.1667 5.46875 44.1484 5.14062C44.1302 4.79427 44.2122 4.47526 44.3945 4.18359C44.5768 3.8737 44.8047 3.61849 45.0781 3.41797C45.3516 3.19922 45.5885 3.07161 45.7891 3.03516C45.9896 2.9987 46.1536 3.04427 46.2812 3.17188C46.4271 3.28125 46.5365 3.4362 46.6094 3.63672C46.6823 3.81901 46.7188 4.02865 46.7188 4.26562C46.737 4.5026 46.7188 4.71224 46.6641 4.89453ZM42.8906 10.7188C42.9818 10.6094 43.1549 10.5182 43.4102 10.4453C43.6654 10.3724 43.9297 10.3177 44.2031 10.2812C44.4766 10.2266 44.7227 10.1992 44.9414 10.1992C45.1784 10.181 45.3151 10.181 45.3516 10.1992C45.3698 10.2174 45.3242 10.4089 45.2148 10.7734C45.1055 11.138 44.9688 11.5664 44.8047 12.0586C44.6406 12.5508 44.4674 13.0612 44.2852 13.5898C44.1029 14.1003 43.9661 14.5195 43.875 14.8477C43.7839 15.1758 43.6745 15.5495 43.5469 15.9688C43.4193 16.3698 43.3008 16.7708 43.1914 17.1719C43.1003 17.5547 43.0365 17.9193 43 18.2656C42.9635 18.612 42.9909 18.8763 43.082 19.0586C43.1732 19.2773 43.2734 19.4323 43.3828 19.5234C43.4922 19.5964 43.6107 19.6328 43.7383 19.6328C44.1029 19.6328 44.5586 19.4323 45.1055 19.0312C45.6706 18.6302 46.2357 18.1562 46.8008 17.6094C47.3841 17.0443 47.9219 16.4792 48.4141 15.9141C48.9062 15.3307 49.2708 14.8659 49.5078 14.5195C49.6536 14.3372 49.7995 14.2188 49.9453 14.1641C50.1094 14.1094 50.237 14.1185 50.3281 14.1914C50.4375 14.2643 50.4922 14.3828 50.4922 14.5469C50.5104 14.7109 50.4557 14.9023 50.3281 15.1211C50.0365 15.6315 49.6081 16.2422 49.043 16.9531C48.4779 17.6458 47.8763 18.3203 47.2383 18.9766C46.6003 19.6146 45.9714 20.1615 45.3516 20.6172C44.75 21.0729 44.2578 21.3099 43.875 21.3281C43.5651 21.3464 43.2552 21.2917 42.9453 21.1641C42.6536 21.0547 42.3802 20.8997 42.125 20.6992C41.888 20.4805 41.6875 20.2344 41.5234 19.9609C41.3594 19.6693 41.2682 19.3685 41.25 19.0586C41.1953 18.6029 41.1953 17.9831 41.25 17.1992C41.3047 16.3971 41.4049 15.5859 41.5508 14.7656C41.6966 13.9271 41.8789 13.1341 42.0977 12.3867C42.3346 11.6393 42.599 11.0833 42.8906 10.7188ZM47.293 20.8633C47.1654 21.0638 47.0286 21.1914 46.8828 21.2461C46.7188 21.319 46.582 21.3281 46.4727 21.2734C46.3451 21.237 46.263 21.1458 46.2266 21C46.1901 20.8542 46.2266 20.6719 46.3359 20.4531C46.3906 20.3438 46.5182 20.0977 46.7188 19.7148C46.901 19.332 47.1289 18.8763 47.4023 18.3477C47.6576 17.8008 47.9401 17.2174 48.25 16.5977C48.5599 15.9596 48.8516 15.3581 49.125 14.793C49.4167 14.2279 49.681 13.7266 49.918 13.2891C50.1549 12.8333 50.3281 12.5052 50.4375 12.3047C50.237 12.1224 50.1003 11.9948 50.0273 11.9219C49.9544 11.8307 49.8997 11.6484 49.8633 11.375C49.8268 11.138 49.8815 10.8281 50.0273 10.4453C50.1732 10.0625 50.3646 9.69792 50.6016 9.35156C50.8385 8.98698 51.1029 8.67708 51.3945 8.42188C51.6862 8.16667 51.9688 8.03906 52.2422 8.03906C52.7526 8.03906 53.1081 8.20312 53.3086 8.53125C53.5273 8.85938 53.6549 9.19661 53.6914 9.54297C53.7279 9.77995 53.7096 10.0807 53.6367 10.4453C53.5638 10.8099 53.4271 11.138 53.2266 11.4297C53.2812 11.4661 53.3542 11.5117 53.4453 11.5664C53.5365 11.6029 53.6823 11.6211 53.8828 11.6211C54.1745 11.6211 54.375 11.6029 54.4844 11.5664C54.612 11.5299 54.8034 11.5117 55.0586 11.5117C55.3685 11.5117 55.6237 11.5938 55.8242 11.7578C56.0247 11.9036 56.1888 12.0951 56.3164 12.332C56.444 12.5508 56.5352 12.7969 56.5898 13.0703C56.6628 13.3255 56.7083 13.5625 56.7266 13.7812C56.7812 14.237 56.6628 14.7109 56.3711 15.2031C56.0794 15.6953 55.724 16.2331 55.3047 16.8164C55.0495 17.181 54.7943 17.5911 54.5391 18.0469C54.2839 18.5026 54.1745 18.9128 54.2109 19.2773C54.2474 19.5143 54.3112 19.7057 54.4023 19.8516C54.4935 19.9974 54.7487 20.0703 55.168 20.0703C55.4779 20.0703 55.8151 19.9609 56.1797 19.7422C56.5625 19.5052 56.9453 19.2135 57.3281 18.8672C57.7292 18.5026 58.1211 18.1107 58.5039 17.6914C58.8867 17.2539 59.2422 16.8346 59.5703 16.4336C59.8984 16.0143 60.1719 15.6406 60.3906 15.3125C60.6276 14.9844 60.8008 14.7474 60.9102 14.6016C61.0013 14.4557 61.1198 14.3555 61.2656 14.3008C61.4115 14.2461 61.5391 14.2461 61.6484 14.3008C61.7578 14.3555 61.8216 14.4648 61.8398 14.6289C61.8763 14.793 61.8125 15.0117 61.6484 15.2852C61.5391 15.4674 61.3477 15.7591 61.0742 16.1602C60.819 16.5612 60.5 17.0078 60.1172 17.5C59.7526 17.9922 59.3424 18.5026 58.8867 19.0312C58.431 19.5417 57.9479 20.0156 57.4375 20.4531C56.9453 20.8724 56.444 21.2188 55.9336 21.4922C55.4414 21.7656 54.9674 21.9023 54.5117 21.9023C54.0378 21.9023 53.6458 21.8112 53.3359 21.6289C53.026 21.4466 52.7708 21.2279 52.5703 20.9727C52.388 20.6992 52.2513 20.4076 52.1602 20.0977C52.0872 19.7695 52.0599 19.4688 52.0781 19.1953C52.0964 18.9766 52.151 18.7487 52.2422 18.5117C52.3516 18.2565 52.4701 18.0013 52.5977 17.7461C52.7435 17.4727 52.8893 17.2083 53.0352 16.9531C53.1992 16.6797 53.3451 16.4154 53.4727 16.1602C53.7826 15.6315 54.0286 15.1849 54.2109 14.8203C54.4115 14.4375 54.5117 14.1185 54.5117 13.8633C54.5117 13.6992 54.4753 13.5534 54.4023 13.4258C54.3294 13.2982 54.2109 13.2344 54.0469 13.2344C53.9375 13.2344 53.8555 13.2435 53.8008 13.2617C53.7643 13.2617 53.7188 13.2617 53.6641 13.2617C53.6276 13.2617 53.5638 13.2708 53.4727 13.2891C53.3997 13.2891 53.2812 13.2891 53.1172 13.2891C52.8802 13.2891 52.6797 13.2526 52.5156 13.1797C52.3516 13.1068 52.1966 13.0521 52.0508 13.0156C51.9779 13.1432 51.8138 13.4167 51.5586 13.8359C51.3034 14.2552 51.0026 14.7474 50.6562 15.3125C50.3281 15.8776 49.9727 16.4701 49.5898 17.0898C49.2253 17.7096 48.8789 18.293 48.5508 18.8398C48.2227 19.3685 47.9492 19.8242 47.7305 20.207C47.4935 20.5716 47.3477 20.7904 47.293 20.8633Z" fill="white"/>
</svg>
