<svg width="134" height="68" viewBox="0 0 134 68" fill="none" xmlns="http://www.w3.org/2000/svg">
<rect width="134" height="68" fill="black"/>
<path d="M29.1885 54.2505C27.8727 54.2505 26.641 54.0406 25.4932 53.6207C24.3734 53.2007 23.3796 52.6129 22.5117 51.857C21.6719 51.1011 21 50.2053 20.4961 49.1695C19.9922 48.1617 19.7262 47.0559 19.6982 45.8521C19.6702 44.2844 19.9222 42.8847 20.4541 41.6529C20.958 40.4211 21.6299 39.3293 22.4697 38.3775C23.3376 37.4257 24.3174 36.6278 25.4092 35.9839C26.501 35.3121 27.6208 34.7662 28.7686 34.3462C28.1527 34.0103 27.5648 33.6044 27.0049 33.1285C26.473 32.6526 25.9971 32.1207 25.5771 31.5328C25.1572 30.9449 24.8213 30.329 24.5693 29.6851C24.3174 29.0412 24.1914 28.3974 24.1914 27.7535C24.1354 25.7938 24.5273 24.0162 25.3672 22.4205C26.235 20.8248 27.3408 19.467 28.6846 18.3472C30.0283 17.1994 31.526 16.3176 33.1777 15.7017C34.8574 15.0858 36.4951 14.7779 38.0908 14.7779C39.1546 14.7779 40.0645 14.9599 40.8203 15.3238C41.5762 15.6597 42.1921 16.0936 42.668 16.6255C43.1439 17.1295 43.4938 17.6893 43.7178 18.3052C43.9697 18.8931 44.1097 19.439 44.1377 19.9429C44.1657 20.8668 44.0397 21.8046 43.7598 22.7564C43.5078 23.7082 43.1719 24.5761 42.752 25.3599C42.36 26.1158 41.9121 26.7457 41.4082 27.2496C40.9043 27.7255 40.4144 27.9634 39.9385 27.9634C39.5745 27.9634 39.1966 27.9074 38.8047 27.7955C38.4688 27.7115 38.0768 27.5715 37.6289 27.3755C37.181 27.1796 36.7331 26.8856 36.2852 26.4937C37.013 26.2138 37.6569 25.8218 38.2168 25.3179C38.7767 24.786 39.2386 24.1981 39.6025 23.5543C39.9945 22.9104 40.2744 22.2525 40.4424 21.5806C40.6383 20.8808 40.7363 20.2229 40.7363 19.607C40.7083 18.7112 40.4984 18.0253 40.1064 17.5494C39.7145 17.0455 39.0846 16.7935 38.2168 16.7935C37.041 16.7935 35.8652 17.0875 34.6895 17.6754C33.5137 18.2352 32.4639 19.0331 31.54 20.0689C30.6442 21.0767 29.9303 22.2945 29.3984 23.7222C28.8945 25.122 28.7266 26.6477 28.8945 28.2994C29.0345 29.5591 29.4124 30.6229 30.0283 31.4908C30.6722 32.3586 31.2741 33.0305 31.834 33.5064C32.2819 33.4504 32.7018 33.4084 33.0938 33.3804C33.4857 33.3244 33.8496 33.2964 34.1855 33.2964C34.6615 33.2964 35.1374 33.3804 35.6133 33.5484C36.0892 33.7164 36.3271 33.9543 36.3271 34.2623C36.3271 34.4862 36.2712 34.7382 36.1592 35.0181C36.0752 35.2981 35.9212 35.564 35.6973 35.816C35.4733 36.0679 35.2074 36.2779 34.8994 36.4459C34.5915 36.6138 34.2275 36.6978 33.8076 36.6978C33.4717 36.6978 33.0658 36.6138 32.5898 36.4459C32.1139 36.2779 31.638 36.0679 31.1621 35.816C30.0983 36.0399 29.1325 36.4459 28.2646 37.0337C27.3968 37.5936 26.6549 38.2655 26.0391 39.0494C25.4512 39.8332 24.9893 40.6871 24.6533 41.6109C24.3174 42.5347 24.1634 43.4306 24.1914 44.2984C24.2194 45.1102 24.3454 45.9221 24.5693 46.7339C24.7933 47.5738 25.1432 48.3156 25.6191 48.9595C26.0951 49.6034 26.7109 50.1213 27.4668 50.5132C28.2507 50.9332 29.1885 51.1431 30.2803 51.1431C31.0921 51.1431 31.862 50.9612 32.5898 50.5972C33.3457 50.2613 34.0456 49.8274 34.6895 49.2955C35.3333 48.7636 35.9212 48.1757 36.4531 47.5318C36.985 46.8879 37.4469 46.258 37.8389 45.6421C38.2308 45.0263 38.5527 44.4664 38.8047 43.9625C39.0846 43.4586 39.2806 43.0946 39.3926 42.8707C39.4766 42.7027 39.5885 42.5767 39.7285 42.4927C39.8965 42.4087 40.0505 42.3948 40.1904 42.4507C40.3584 42.4787 40.4844 42.5767 40.5684 42.7447C40.6523 42.9127 40.6523 43.1646 40.5684 43.5005C40.3444 44.5084 39.9245 45.6281 39.3086 46.8599C38.6927 48.1197 37.8949 49.2955 36.915 50.3873C35.9632 51.4791 34.8294 52.3889 33.5137 53.1168C32.2259 53.8726 30.7842 54.2505 29.1885 54.2505ZM42.8779 45.7681C44.1097 40.5891 45.0895 36.4319 45.8174 33.2964C46.5732 30.161 47.1471 27.7675 47.5391 26.1158C47.987 24.1561 48.2949 22.7984 48.4629 22.0425C48.5469 21.5106 48.6169 20.9927 48.6729 20.4888C48.7288 20.0409 48.7568 19.579 48.7568 19.1031C48.7568 18.6272 48.7148 18.1933 48.6309 17.8013C48.8548 17.6614 49.0928 17.5494 49.3447 17.4654C49.6247 17.3814 49.8906 17.3114 50.1426 17.2554C50.4505 17.1714 50.7585 17.1015 51.0664 17.0455C51.3743 16.9895 51.6543 16.9615 51.9062 16.9615C52.1302 16.9615 52.3402 16.9895 52.5361 17.0455C52.7321 17.0735 52.8581 17.1574 52.9141 17.2974C53.082 17.4374 53.152 17.7173 53.124 18.1373C53.124 18.5572 53.096 18.9911 53.04 19.439C52.9281 19.9709 52.8021 20.5448 52.6621 21.1607C52.3262 22.3645 51.8643 24.1002 51.2764 26.3677C50.7725 28.2994 50.0866 30.9309 49.2188 34.2623C48.3789 37.5936 47.3151 41.7929 46.0273 46.8599C45.8874 46.9999 45.7194 47.0979 45.5234 47.1539C45.3275 47.2099 45.1455 47.2379 44.9775 47.2379C44.7816 47.2379 44.5716 47.2239 44.3477 47.1959C44.1517 47.1399 43.9557 47.0559 43.7598 46.9439C43.5918 46.8319 43.4238 46.678 43.2559 46.482C43.0879 46.314 42.9619 46.0761 42.8779 45.7681ZM62.1523 21.7066C62.0684 22.0145 61.9004 22.3225 61.6484 22.6304C61.4245 22.9104 61.1585 23.1483 60.8506 23.3443C60.5706 23.5123 60.2767 23.6242 59.9688 23.6802C59.6608 23.7362 59.4089 23.6802 59.2129 23.5123C58.625 23.0643 58.3171 22.5884 58.2891 22.0845C58.2611 21.5526 58.387 21.0627 58.667 20.6148C58.9469 20.1389 59.2969 19.747 59.7168 19.439C60.1367 19.1031 60.5007 18.9071 60.8086 18.8511C61.1165 18.7951 61.3685 18.8651 61.5645 19.0611C61.7884 19.2291 61.9564 19.467 62.0684 19.775C62.1803 20.0549 62.2363 20.3768 62.2363 20.7408C62.2643 21.1047 62.2363 21.4267 62.1523 21.7066ZM56.3574 30.6509C56.4974 30.483 56.7633 30.343 57.1553 30.231C57.5472 30.119 57.9531 30.0351 58.373 29.9791C58.793 29.8951 59.1709 29.8531 59.5068 29.8531C59.8708 29.8251 60.0807 29.8251 60.1367 29.8531C60.1647 29.8811 60.0947 30.175 59.9268 30.7349C59.7588 31.2948 59.5488 31.9527 59.2969 32.7086C59.0449 33.4644 58.779 34.2483 58.499 35.0601C58.2191 35.844 58.0091 36.4879 57.8691 36.9918C57.7292 37.4957 57.5612 38.0696 57.3652 38.7134C57.1693 39.3293 56.9873 39.9452 56.8193 40.5611C56.6794 41.149 56.5814 41.7089 56.5254 42.2408C56.4694 42.7727 56.5114 43.1786 56.6514 43.4586C56.7913 43.7945 56.9453 44.0324 57.1133 44.1724C57.2812 44.2844 57.4632 44.3404 57.6592 44.3404C58.2191 44.3404 58.9189 44.0324 59.7588 43.4166C60.6266 42.8007 61.4945 42.0728 62.3623 41.233C63.2581 40.3651 64.084 39.4973 64.8398 38.6295C65.5957 37.7336 66.1556 37.0198 66.5195 36.4879C66.7435 36.2079 66.9674 36.0259 67.1914 35.942C67.4434 35.858 67.6393 35.872 67.7793 35.9839C67.9473 36.0959 68.0312 36.2779 68.0312 36.5298C68.0592 36.7818 67.9753 37.0757 67.7793 37.4117C67.3314 38.1955 66.6735 39.1334 65.8057 40.2252C64.9378 41.289 64.014 42.3248 63.0342 43.3326C62.0544 44.3124 61.0885 45.1522 60.1367 45.8521C59.2129 46.552 58.457 46.9159 57.8691 46.9439C57.3932 46.9719 56.9173 46.8879 56.4414 46.692C55.9935 46.524 55.5736 46.286 55.1816 45.9781C54.8177 45.6421 54.5098 45.2642 54.2578 44.8443C54.0059 44.3964 53.8659 43.9345 53.8379 43.4586C53.7539 42.7587 53.7539 41.8069 53.8379 40.6031C53.9219 39.3713 54.0758 38.1255 54.2998 36.8658C54.5238 35.578 54.8037 34.3602 55.1396 33.2125C55.5036 32.0647 55.9095 31.2108 56.3574 30.6509ZM83.0645 40.897C81.8887 42.3808 80.8389 43.5565 79.915 44.4244C79.0192 45.2642 78.2214 45.8941 77.5215 46.314C76.8216 46.7339 76.2057 46.9999 75.6738 47.1119C75.1419 47.2239 74.666 47.2798 74.2461 47.2798C73.7142 47.2798 73.2663 47.1539 72.9023 46.9019C72.5384 46.65 72.2305 46.342 71.9785 45.9781C71.7266 45.6142 71.5306 45.2362 71.3906 44.8443C71.2507 44.4524 71.1387 44.1164 71.0547 43.8365C70.9427 43.5285 70.8167 43.1786 70.6768 42.7867C70.5648 42.3948 70.4388 41.9608 70.2988 41.4849C69.7389 42.0728 69.151 42.7027 68.5352 43.3746C68.0033 43.9345 67.4014 44.5783 66.7295 45.3062C66.0576 46.0061 65.3717 46.7199 64.6719 47.4478C64.4199 47.5038 64.196 47.5038 64 47.4478C63.804 47.3918 63.6361 47.3358 63.4961 47.2798C63.3281 47.1959 63.1882 47.0979 63.0762 46.9859C62.9922 46.9019 62.9082 46.8039 62.8242 46.692C62.7682 46.608 62.7122 46.51 62.6562 46.398C62.5723 46.258 62.5443 46.1181 62.5723 45.9781C63.3841 45.0543 64.182 44.1444 64.9658 43.2486C65.7777 42.3248 66.5055 41.4989 67.1494 40.7711C67.8773 39.9312 68.5771 39.1194 69.249 38.3355C68.8571 37.2717 68.5072 36.2779 68.1992 35.3541C67.8913 34.4302 67.6673 33.7724 67.5273 33.3804C67.2474 32.5686 66.9954 31.8967 66.7715 31.3648C66.5755 30.8329 66.2256 30.455 65.7217 30.231C66.0576 29.9231 66.3796 29.6851 66.6875 29.5171C67.0234 29.3212 67.3174 29.1812 67.5693 29.0972C67.8773 28.9852 68.1432 28.9293 68.3672 28.9293C69.0111 28.9293 69.571 29.5031 70.0469 30.6509C70.5508 31.7707 71.0547 33.3244 71.5586 35.3121C71.5586 35.3961 71.5866 35.494 71.6426 35.606C72.2305 34.9061 72.7904 34.2483 73.3223 33.6324C73.8822 33.0165 74.3581 32.4706 74.75 31.9947C75.1699 31.5188 75.5059 31.1408 75.7578 30.8609C76.0098 30.5809 76.1637 30.413 76.2197 30.357C76.7796 29.7131 77.2835 29.3492 77.7314 29.2652C78.1794 29.1812 78.5853 29.2792 78.9492 29.5591C79.1172 29.6711 79.2992 29.7831 79.4951 29.8951C79.859 30.119 80.293 30.329 80.7969 30.525C80.321 30.9729 79.7891 31.4908 79.2012 32.0787C78.6413 32.6386 78.1094 33.1845 77.6055 33.7164C77.0176 34.3323 76.4297 34.9481 75.8418 35.564C75.4219 35.9839 74.918 36.5018 74.3301 37.1177C73.7702 37.7336 73.1683 38.4055 72.5244 39.1334C72.7204 39.8332 72.9303 40.4911 73.1543 41.107C73.3783 41.7229 73.6022 42.2688 73.8262 42.7447C74.0781 43.2206 74.3301 43.5985 74.582 43.8785C74.834 44.1584 75.0999 44.2984 75.3799 44.2984C75.8278 44.2984 76.3317 44.1864 76.8916 43.9625C77.4515 43.7105 78.0394 43.3746 78.6553 42.9546C79.2712 42.5347 79.887 42.0448 80.5029 41.4849C81.1468 40.925 81.7767 40.3371 82.3926 39.7212C82.6165 39.4973 82.8265 39.3713 83.0225 39.3433C83.2464 39.3153 83.4004 39.3573 83.4844 39.4693C83.5684 39.5813 83.5824 39.7632 83.5264 40.0152C83.4984 40.2671 83.3444 40.5611 83.0645 40.897ZM91.127 21.7066C91.043 22.0145 90.875 22.3225 90.623 22.6304C90.3991 22.9104 90.1331 23.1483 89.8252 23.3443C89.5452 23.5123 89.2513 23.6242 88.9434 23.6802C88.6354 23.7362 88.3835 23.6802 88.1875 23.5123C87.5996 23.0643 87.2917 22.5884 87.2637 22.0845C87.2357 21.5526 87.3617 21.0627 87.6416 20.6148C87.9215 20.1389 88.2715 19.747 88.6914 19.439C89.1113 19.1031 89.4753 18.9071 89.7832 18.8511C90.0911 18.7951 90.3431 18.8651 90.5391 19.0611C90.763 19.2291 90.931 19.467 91.043 19.775C91.1549 20.0549 91.2109 20.3768 91.2109 20.7408C91.2389 21.1047 91.2109 21.4267 91.127 21.7066ZM85.332 30.6509C85.472 30.483 85.738 30.343 86.1299 30.231C86.5218 30.119 86.9277 30.0351 87.3477 29.9791C87.7676 29.8951 88.1455 29.8531 88.4814 29.8531C88.8454 29.8251 89.0553 29.8251 89.1113 29.8531C89.1393 29.8811 89.0693 30.175 88.9014 30.7349C88.7334 31.2948 88.5234 31.9527 88.2715 32.7086C88.0195 33.4644 87.7536 34.2483 87.4736 35.0601C87.1937 35.844 86.9837 36.4879 86.8438 36.9918C86.7038 37.4957 86.5358 38.0696 86.3398 38.7134C86.1439 39.3293 85.9619 39.9452 85.7939 40.5611C85.654 41.149 85.556 41.7089 85.5 42.2408C85.444 42.7727 85.486 43.1786 85.626 43.4586C85.766 43.7945 85.9199 44.0324 86.0879 44.1724C86.2559 44.2844 86.4378 44.3404 86.6338 44.3404C87.1937 44.3404 87.8936 44.0324 88.7334 43.4166C89.6012 42.8007 90.4691 42.0728 91.3369 41.233C92.2327 40.3651 93.0586 39.4973 93.8145 38.6295C94.5703 37.7336 95.1302 37.0198 95.4941 36.4879C95.7181 36.2079 95.9421 36.0259 96.166 35.942C96.418 35.858 96.6139 35.872 96.7539 35.9839C96.9219 36.0959 97.0059 36.2779 97.0059 36.5298C97.0339 36.7818 96.9499 37.0757 96.7539 37.4117C96.306 38.1955 95.6481 39.1334 94.7803 40.2252C93.9124 41.289 92.9886 42.3248 92.0088 43.3326C91.029 44.3124 90.0632 45.1522 89.1113 45.8521C88.1875 46.552 87.4316 46.9159 86.8438 46.9439C86.3678 46.9719 85.8919 46.8879 85.416 46.692C84.9681 46.524 84.5482 46.286 84.1562 45.9781C83.7923 45.6421 83.4844 45.2642 83.2324 44.8443C82.9805 44.3964 82.8405 43.9345 82.8125 43.4586C82.7285 42.7587 82.7285 41.8069 82.8125 40.6031C82.8965 39.3713 83.0505 38.1255 83.2744 36.8658C83.4984 35.578 83.7783 34.3602 84.1143 33.2125C84.4782 32.0647 84.8841 31.2108 85.332 30.6509ZM92.0928 46.23C91.8968 46.538 91.6868 46.7339 91.4629 46.8179C91.2109 46.9299 91.001 46.9439 90.833 46.8599C90.637 46.8039 90.5111 46.664 90.4551 46.44C90.3991 46.216 90.4551 45.9361 90.623 45.6002C90.707 45.4322 90.903 45.0543 91.2109 44.4664C91.4909 43.8785 91.8408 43.1786 92.2607 42.3668C92.6527 41.5269 93.0866 40.6311 93.5625 39.6793C94.0384 38.6994 94.4863 37.7756 94.9062 36.9078C95.3542 36.0399 95.7601 35.2701 96.124 34.5982C96.488 33.8983 96.7539 33.3944 96.9219 33.0865C96.6139 32.8065 96.404 32.6106 96.292 32.4986C96.18 32.3586 96.096 32.0787 96.04 31.6587C95.984 31.2948 96.068 30.8189 96.292 30.231C96.516 29.6431 96.8099 29.0832 97.1738 28.5513C97.5378 27.9914 97.9437 27.5155 98.3916 27.1236C98.8395 26.7317 99.2734 26.5357 99.6934 26.5357C100.477 26.5357 101.023 26.7877 101.331 27.2916C101.667 27.7955 101.863 28.3134 101.919 28.8453C101.975 29.2092 101.947 29.6711 101.835 30.231C101.723 30.7909 101.513 31.2948 101.205 31.7427C101.289 31.7987 101.401 31.8687 101.541 31.9527C101.681 32.0087 101.905 32.0367 102.213 32.0367C102.661 32.0367 102.969 32.0087 103.137 31.9527C103.333 31.8967 103.627 31.8687 104.019 31.8687C104.494 31.8687 104.886 31.9947 105.194 32.2466C105.502 32.4706 105.754 32.7645 105.95 33.1285C106.146 33.4644 106.286 33.8423 106.37 34.2623C106.482 34.6542 106.552 35.0181 106.58 35.3541C106.664 36.0539 106.482 36.7818 106.034 37.5377C105.586 38.2935 105.04 39.1194 104.396 40.0152C104.005 40.5751 103.613 41.205 103.221 41.9048C102.829 42.6047 102.661 43.2346 102.717 43.7945C102.773 44.1584 102.871 44.4524 103.011 44.6763C103.151 44.9003 103.543 45.0123 104.187 45.0123C104.662 45.0123 105.18 44.8443 105.74 44.5084C106.328 44.1444 106.916 43.6965 107.504 43.1646C108.12 42.6047 108.722 42.0028 109.31 41.3589C109.897 40.6871 110.443 40.0432 110.947 39.4273C111.451 38.7834 111.871 38.2095 112.207 37.7056C112.571 37.2017 112.837 36.8378 113.005 36.6138C113.145 36.3899 113.327 36.2359 113.551 36.1519C113.775 36.0679 113.971 36.0679 114.139 36.1519C114.307 36.2359 114.405 36.4039 114.433 36.6558C114.489 36.9078 114.391 37.2437 114.139 37.6636C113.971 37.9436 113.677 38.3915 113.257 39.0074C112.865 39.6233 112.375 40.3091 111.787 41.065C111.227 41.8209 110.597 42.6047 109.897 43.4166C109.198 44.2004 108.456 44.9283 107.672 45.6002C106.916 46.244 106.146 46.7759 105.362 47.1959C104.606 47.6158 103.879 47.8257 103.179 47.8257C102.451 47.8257 101.849 47.6858 101.373 47.4058C100.897 47.1259 100.505 46.7899 100.197 46.398C99.9173 45.9781 99.7074 45.5302 99.5674 45.0543C99.4554 44.5504 99.4134 44.0884 99.4414 43.6685C99.4694 43.3326 99.5534 42.9826 99.6934 42.6187C99.8613 42.2268 100.043 41.8349 100.239 41.4429C100.463 41.023 100.687 40.6171 100.911 40.2252C101.163 39.8052 101.387 39.3993 101.583 39.0074C102.059 38.1955 102.437 37.5097 102.717 36.9498C103.025 36.3619 103.179 35.872 103.179 35.48C103.179 35.2281 103.123 35.0041 103.011 34.8082C102.899 34.6122 102.717 34.5142 102.465 34.5142C102.297 34.5142 102.171 34.5282 102.087 34.5562C102.031 34.5562 101.961 34.5562 101.877 34.5562C101.821 34.5562 101.723 34.5702 101.583 34.5982C101.471 34.5982 101.289 34.5982 101.037 34.5982C100.673 34.5982 100.365 34.5422 100.113 34.4302C99.8613 34.3183 99.6234 34.2343 99.3994 34.1783C99.2874 34.3742 99.0355 34.7942 98.6436 35.438C98.2516 36.0819 97.7897 36.8378 97.2578 37.7056C96.7539 38.5735 96.208 39.4833 95.6201 40.4351C95.0602 41.3869 94.5283 42.2828 94.0244 43.1226C93.5205 43.9345 93.1006 44.6343 92.7646 45.2222C92.4007 45.7821 92.1768 46.1181 92.0928 46.23Z" fill="white"/>
</svg>
